<svg width="81" height="24" viewBox="0 0 81 24" fill="none" xmlns="http://www.w3.org/2000/svg">
<g clip-path="url(#clip0_2001_174)">
<path d="M50.0789 18.7495C45.4636 22.1513 38.774 23.9663 33.0143 23.9663C24.9384 23.9663 17.668 20.9793 12.1676 16.0114C11.7355 15.6207 12.1227 15.0883 12.6412 15.3925C18.5772 18.8463 25.9168 20.924 33.4983 20.924C38.6115 20.924 44.2363 19.8661 49.4082 17.6708C50.1895 17.3389 50.8429 18.1825 50.0789 18.7495Z" fill="white"/>
<path d="M51.9977 16.5542C51.41 15.8005 48.098 16.1981 46.6114 16.3744C46.1585 16.4297 46.0894 16.0356 46.4973 15.7521C49.1351 13.8956 53.4635 14.4315 53.9683 15.0538C54.473 15.6795 53.8369 20.0183 51.3581 22.0891C50.9778 22.4072 50.6148 22.2378 50.7842 21.816C51.3408 20.4262 52.5888 17.3113 51.9977 16.5542Z" fill="white"/>
<path d="M46.7151 2.646V0.841355C46.7151 0.568239 46.9225 0.38501 47.1714 0.38501H55.2508C55.5101 0.38501 55.7175 0.571697 55.7175 0.841355V2.38671C55.7141 2.646 55.4963 2.9848 55.1091 3.52066L50.9224 9.4981C52.4781 9.46007 54.1203 9.6917 55.5308 10.4868C55.8489 10.6666 55.9353 10.9294 55.9595 11.1887V13.1143C55.9595 13.377 55.6691 13.6847 55.3649 13.5257C52.8792 12.2223 49.5776 12.0806 46.8291 13.5395C46.5491 13.6916 46.2552 13.3874 46.2552 13.1247V11.2958C46.2552 11.002 46.2587 10.5007 46.5526 10.0547L51.403 3.09888H47.1818C46.9225 3.09888 46.7151 2.91566 46.7151 2.646Z" fill="white"/>
<path d="M17.2428 13.9062H14.7848C14.5497 13.8889 14.363 13.7126 14.3457 13.4879V0.872657C14.3457 0.620284 14.5566 0.419767 14.8193 0.419767H17.1114C17.35 0.430131 17.5401 0.613368 17.5574 0.84154V2.49061H17.6024C18.2004 0.896855 19.324 0.153564 20.8383 0.153564C22.3767 0.153564 23.3378 0.896855 24.0292 2.49061C24.6239 0.896855 25.9756 0.153564 27.4242 0.153564C28.4544 0.153564 29.5814 0.578796 30.2694 1.53297C31.0473 2.59432 30.8882 4.13622 30.8882 5.48797L30.8848 13.4498C30.8848 13.7022 30.6739 13.9062 30.4112 13.9062H27.9566C27.7111 13.8889 27.5141 13.6918 27.5141 13.4498V6.76367C27.5141 6.23126 27.5625 4.90371 27.4449 4.39896C27.2617 3.55196 26.712 3.31341 25.9998 3.31341C25.4052 3.31341 24.7829 3.71099 24.5305 4.34711C24.2781 4.98323 24.3023 6.04803 24.3023 6.76367V13.4498C24.3023 13.7022 24.0915 13.9062 23.8287 13.9062H21.3741C21.1252 13.8889 20.9316 13.6918 20.9316 13.4498L20.9281 6.76367C20.9281 5.3566 21.1598 3.28576 19.4139 3.28576C17.6473 3.28576 17.7164 5.30474 17.7164 6.76367V13.4498C17.7164 13.7022 17.5056 13.9062 17.2428 13.9062Z" fill="white"/>
<path d="M62.6734 0.153564C66.3208 0.153564 68.2948 3.28576 68.2948 7.26841C68.2948 11.1162 66.1133 14.1689 62.6734 14.1689C59.0918 14.1689 57.142 11.0367 57.142 7.13358C57.142 3.20624 59.116 0.153564 62.6734 0.153564ZM62.6942 2.72915C60.8826 2.72915 60.7685 5.19757 60.7685 6.73601C60.7685 8.27791 60.7443 11.5691 62.6734 11.5691C64.5783 11.5691 64.6682 8.91403 64.6682 7.29607C64.6682 6.23126 64.6233 4.95903 64.3018 3.94953C64.0252 3.07141 63.4755 2.72915 62.6942 2.72915Z" fill="white"/>
<path d="M73.0241 13.9062H70.5765C70.331 13.8889 70.1339 13.6918 70.1339 13.4498L70.1305 0.831169C70.1512 0.599539 70.3552 0.419767 70.6041 0.419767H72.8824C73.0967 0.430131 73.2731 0.575339 73.3215 0.772398V2.7015H73.3664C74.0544 0.97637 75.0189 0.153564 76.7164 0.153564C77.8192 0.153564 78.8944 0.551139 79.5858 1.64015C80.2289 2.64964 80.2289 4.34711 80.2289 5.56749V13.5086C80.2012 13.7299 79.9972 13.9062 79.7552 13.9062H77.2903C77.0656 13.8889 76.8789 13.7229 76.8547 13.5086V6.6565C76.8547 5.27709 77.0137 3.2581 75.3162 3.2581C74.7182 3.2581 74.1685 3.65913 73.8953 4.26759C73.5496 5.03854 73.5047 5.80603 73.5047 6.6565V13.4498C73.5012 13.7022 73.2869 13.9062 73.0241 13.9062Z" fill="white"/>
<path d="M40.2744 7.88024V7.34784C38.4974 7.34784 36.6202 7.72812 36.6202 9.82316C36.6202 10.8845 37.1698 11.6036 38.1136 11.6036C38.8051 11.6036 39.4239 11.1784 39.8146 10.4869C40.2986 9.63648 40.2744 8.83787 40.2744 7.88024ZM42.7532 13.8715C42.5907 14.0167 42.3556 14.0271 42.1724 13.9303C41.3565 13.2527 41.2113 12.9381 40.7618 12.2916C39.4135 13.6675 38.4594 14.0789 36.71 14.0789C34.6427 14.0789 33.0316 12.8032 33.0316 10.2484C33.0316 8.25361 34.1137 6.89495 35.6521 6.23117C36.9866 5.64345 38.85 5.53974 40.2744 5.37725V5.05919C40.2744 4.47493 40.3193 3.7835 39.9771 3.27875C39.6763 2.82586 39.1024 2.63917 38.5977 2.63917C37.6608 2.63917 36.8241 3.11972 36.6202 4.11538C36.5787 4.33664 36.4162 4.55444 36.1949 4.56482L33.8095 4.30898C33.609 4.26404 33.3877 4.10155 33.443 3.79387C33.9927 0.903679 36.6029 0.0324707 38.9399 0.0324707C40.1361 0.0324707 41.6987 0.35053 42.6425 1.25631C43.8387 2.37297 43.7246 3.86301 43.7246 5.48442V9.31496C43.7246 10.4662 44.2017 10.9709 44.6512 11.5932C44.8102 11.8145 44.8448 12.0807 44.6442 12.2466C44.1429 12.665 43.251 13.4428 42.7601 13.8784L42.7532 13.8715Z" fill="white"/>
<path d="M8.05014 7.88024V7.34784C6.27315 7.34784 4.39591 7.72812 4.39591 9.82316C4.39591 10.8845 4.9456 11.6036 5.88941 11.6036C6.58084 11.6036 7.19967 11.1784 7.59033 10.4869C8.07433 9.63648 8.05014 8.83787 8.05014 7.88024ZM10.5289 13.8715C10.3664 14.0167 10.1313 14.0271 9.94812 13.9303C9.13223 13.2527 8.98703 12.9381 8.5376 12.2916C7.1893 13.6675 6.23513 14.0789 4.4858 14.0789C2.41841 14.0789 0.807373 12.8032 0.807373 10.2484C0.807373 8.25361 1.88947 6.89495 3.4279 6.23117C4.76237 5.64345 6.62578 5.53974 8.05014 5.37725V5.05919C8.05014 4.47493 8.09508 3.7835 7.75282 3.27875C7.45204 2.82586 6.87816 2.63917 6.37341 2.63917C5.43652 2.63917 4.59988 3.11972 4.39591 4.11538C4.35442 4.33664 4.19194 4.55444 3.97068 4.56482L1.58524 4.30898C1.38472 4.26404 1.16346 4.10155 1.21878 3.79387C1.76846 0.903679 4.37862 0.0324707 6.71567 0.0324707C7.91185 0.0324707 9.47449 0.35053 10.4183 1.25631C11.6145 2.37297 11.5004 3.86301 11.5004 5.48442V9.31496C11.5004 10.4662 11.9775 10.9709 12.4269 11.5932C12.5859 11.8145 12.6205 12.0807 12.42 12.2466C11.9187 12.665 11.0268 13.4428 10.5358 13.8784L10.5289 13.8715Z" fill="white"/>
</g>
<defs>
<clipPath id="clip0_2001_174">
<rect width="79.5165" height="24" fill="white" transform="translate(0.759399)"/>
</clipPath>
</defs>
</svg>
