<svg width="102" height="24" viewBox="0 0 102 24" fill="none" xmlns="http://www.w3.org/2000/svg">
<g clip-path="url(#clip0_2001_208)">
<path d="M24.4667 22.4046H18.8859L17.1787 18.287H7.87767L6.32222 22.4046H0.833374L9.21903 1.60693H15.2266L24.4667 22.4046ZM12.2992 6.57654L9.24985 14.6575H15.6539L12.2992 6.57654Z" fill="white"/>
<path d="M44.7391 1.60693H49.2522V22.4046H44.0675V9.41386L38.4565 15.9393H37.664L32.0534 9.41386V22.4046H26.8687V1.60693H31.3818L38.0601 9.32203L44.7391 1.60693Z" fill="white"/>
<path d="M62.389 1.60693C69.9818 1.60693 73.8845 6.33302 73.8845 12.0356C73.8845 18.0125 70.1037 22.4046 61.8092 22.4046H53.2095V1.60693H62.389ZM58.3938 18.5927H61.7781C66.9928 18.5927 68.5482 15.0548 68.5482 12.0048C68.5482 8.43651 66.6267 5.41832 61.7171 5.41832H58.3937V18.5927H58.3938Z" fill="white"/>
<path d="M94.9235 6.53839H84.1992L77.662 0H101.461V23.7996L94.9235 17.262V6.53839Z" fill="white"/>
<path d="M84.1915 17.2697V7.84863L77.4611 14.5786V24.0002H86.8809L93.611 17.2697H84.1915Z" fill="white"/>
</g>
<defs>
<clipPath id="clip0_2001_208">
<rect width="100.627" height="24" fill="white" transform="translate(0.833374)"/>
</clipPath>
</defs>
</svg>
