<svg width="72" height="24" viewBox="0 0 72 24" fill="none" xmlns="http://www.w3.org/2000/svg">
<g clip-path="url(#clip0_2001_198)">
<path d="M30.3248 12.3078C30.3248 15.6391 27.7187 18.0939 24.5204 18.0939C21.3222 18.0939 18.7161 15.6391 18.7161 12.3078C18.7161 8.95303 21.3222 6.52173 24.5204 6.52173C27.7187 6.52173 30.3248 8.95303 30.3248 12.3078ZM27.7839 12.3078C27.7839 10.2261 26.2735 8.80173 24.5204 8.80173C22.7674 8.80173 21.2569 10.2261 21.2569 12.3078C21.2569 14.3687 22.7674 15.8139 24.5204 15.8139C26.2735 15.8139 27.7839 14.3661 27.7839 12.3078Z" fill="white"/>
<path d="M42.8465 12.3078C42.8465 15.6391 40.2404 18.0939 37.0421 18.0939C33.8439 18.0939 31.2378 15.6391 31.2378 12.3078C31.2378 8.95564 33.8439 6.52173 37.0421 6.52173C40.2404 6.52173 42.8465 8.95303 42.8465 12.3078ZM40.3056 12.3078C40.3056 10.2261 38.7952 8.80173 37.0421 8.80173C35.2891 8.80173 33.7787 10.2261 33.7787 12.3078C33.7787 14.3687 35.2891 15.8139 37.0421 15.8139C38.7952 15.8139 40.3056 14.3661 40.3056 12.3078Z" fill="white"/>
<path d="M54.8466 6.87129V17.2591C54.8466 21.5322 52.3266 23.2774 49.3474 23.2774C46.5431 23.2774 44.8553 21.4017 44.2187 19.8678L46.4309 18.9469C46.8248 19.8887 47.79 21 49.3448 21C51.2518 21 52.4335 19.8235 52.4335 17.6087V16.7765H52.3448C51.7761 17.4782 50.6805 18.0913 49.2979 18.0913C46.4048 18.0913 43.7544 15.5713 43.7544 12.3287C43.7544 9.0626 46.4048 6.52173 49.2979 6.52173C50.6779 6.52173 51.7735 7.13477 52.3448 7.81564H52.4335V6.8739H54.8466V6.87129ZM52.6135 12.3287C52.6135 10.2913 51.2544 8.80173 49.5248 8.80173C47.7718 8.80173 46.3031 10.2913 46.3031 12.3287C46.3031 14.3452 47.7718 15.8139 49.5248 15.8139C51.2544 15.8139 52.6135 14.3452 52.6135 12.3287Z" fill="white"/>
<path d="M58.8248 0.782715V17.7392H56.3466V0.782715H58.8248Z" fill="white"/>
<path d="M68.4822 14.2121L70.4543 15.5269C69.8178 16.4686 68.2839 18.0912 65.6335 18.0912C62.3465 18.0912 59.8917 15.5503 59.8917 12.3051C59.8917 8.86426 62.3674 6.51904 65.3491 6.51904C68.3517 6.51904 69.8204 8.90861 70.3004 10.1999L70.5639 10.8573L62.8291 14.0608C63.4213 15.2217 64.3422 15.8138 65.6335 15.8138C66.9274 15.8138 67.8248 15.1773 68.4822 14.2121ZM62.4117 12.1303L67.5822 9.98339C67.2978 9.26078 66.4422 8.7573 65.4352 8.7573C64.1439 8.7573 62.3465 9.8973 62.4117 12.1303Z" fill="white"/>
<path d="M9.3352 10.8026V8.34778H17.6074C17.6882 8.7756 17.73 9.28169 17.73 9.82951C17.73 11.6713 17.2265 13.9486 15.6039 15.5713C14.0256 17.2147 12.0091 18.0913 9.3378 18.0913C4.3865 18.0913 0.223022 14.0582 0.223022 9.10691C0.223022 4.1556 4.3865 0.122559 9.3378 0.122559C12.0769 0.122559 14.0282 1.19734 15.4943 2.59821L13.7622 4.33038C12.7108 3.3443 11.2865 2.57734 9.3352 2.57734C5.71954 2.57734 2.89172 5.49125 2.89172 9.10691C2.89172 12.7226 5.71954 15.6365 9.3352 15.6365C11.6804 15.6365 13.0161 14.6947 13.8717 13.8391C14.5656 13.1452 15.0222 12.1539 15.2022 10.7999L9.3352 10.8026Z" fill="white"/>
</g>
<defs>
<clipPath id="clip0_2001_198">
<rect width="70.9565" height="24" fill="white" transform="translate(0.12915)"/>
</clipPath>
</defs>
</svg>
