<svg width="514" height="19" viewBox="0 0 514 19" fill="none" xmlns="http://www.w3.org/2000/svg">
<path fill-rule="evenodd" clip-rule="evenodd" d="M218.301 1.81964C194.154 2.44321 170.289 3.20995 147.018 4.0482C114.074 5.23401 81.143 6.46072 48.4106 8.403C38.1072 9.01635 27.6439 9.40478 17.4049 10.1715C10.9775 10.6519 2.45492 11.3367 1.33644 11.4799C0.751426 11.5616 0.496205 11.6844 0.413737 11.7253C-0.166122 12.0115 -0.0603192 12.2874 0.266979 12.5021C0.398413 12.5941 0.730772 12.8191 1.65339 12.8498C63.3555 14.9454 126.449 10.8564 188.226 10.427C295.358 9.69101 405.737 12.6147 512.019 18.9935C512.947 19.0446 513.849 18.789 513.978 18.4107C514.132 18.0427 513.462 17.6849 512.535 17.6338C406.073 11.2448 295.513 8.31088 188.175 9.05713C130.601 9.45581 71.891 13.044 14.2376 11.8173C15.5623 11.7151 16.8612 11.6128 18.0467 11.5208C28.2445 10.7541 38.6639 10.3759 48.9261 9.76255C81.5889 7.82027 114.453 6.59357 147.353 5.41798C188.175 3.94594 230.775 2.67834 273.71 2.08543C289.07 2.17743 304.378 2.26948 319.686 2.38192C352.803 2.62726 386.074 3.34285 419.113 4.30376C429.061 4.60021 439.009 4.90686 448.956 5.17265C452.255 5.26465 460.76 5.53039 461.945 5.50995C463.414 5.4895 463.698 4.99887 463.723 4.91709C463.801 4.73308 463.749 4.4775 463.027 4.26283C462.95 4.23216 462.486 4.12987 461.455 4.06854C401.382 0.44977 337.237 -0.153263 273.762 0.71565C206.807 0.337418 139.595 0.173783 72.8111 0C71.855 0 71.0741 0.30672 71.0664 0.684953C71.0612 1.06319 71.8317 1.36992 72.7878 1.38014C121.145 1.50281 169.748 1.62541 218.301 1.81964Z" fill="#1A74E2"/>
</svg>
