<svg width="113" height="24" viewBox="0 0 113 24" fill="none" xmlns="http://www.w3.org/2000/svg">
<g clip-path="url(#clip0_2001_160)">
<path d="M47.1785 4.80007V19.2001H44.6785V7.90007H44.6452L40.1785 19.2001H38.5118L33.9451 7.90007H33.9118V19.2001H31.6118V4.80007H35.2118L39.3452 15.4667H39.4118L43.7785 4.80007H47.1785ZM49.2452 5.90007C49.2452 5.50007 49.3785 5.16673 49.6785 4.90007C49.9785 4.6334 50.3118 4.50007 50.7118 4.50007C51.1452 4.50007 51.5118 4.6334 51.7785 4.90007C52.0452 5.16673 52.2118 5.50007 52.2118 5.90007C52.2118 6.30007 52.0785 6.6334 51.7785 6.90007C51.4785 7.16673 51.1452 7.30007 50.7118 7.30007C50.2785 7.30007 49.9451 7.16673 49.6785 6.90007C49.4118 6.60007 49.2452 6.26673 49.2452 5.90007ZM51.9452 8.86673V19.2001H49.5118V8.86673H51.9452ZM59.3118 17.4334C59.6785 17.4334 60.0785 17.3667 60.5118 17.1667C60.9452 17.0001 61.3452 16.7667 61.7118 16.5001V18.7667C61.3118 19.0001 60.8785 19.1667 60.3785 19.2667C59.8785 19.3667 59.3452 19.4334 58.7452 19.4334C57.2118 19.4334 55.9785 18.9667 55.0452 18.0001C54.0785 17.0334 53.6118 15.8001 53.6118 14.3334C53.6118 12.6667 54.1118 11.3001 55.0785 10.2334C56.0452 9.16673 57.4118 8.6334 59.2118 8.6334C59.6785 8.6334 60.1452 8.70007 60.5785 8.80007C61.0452 8.90007 61.4118 9.06673 61.6785 9.20007V11.5334C61.3118 11.2667 60.9118 11.0334 60.5452 10.9001C60.1452 10.7667 59.7451 10.6667 59.3451 10.6667C58.3785 10.6667 57.6118 10.9667 57.0118 11.6001C56.4118 12.2334 56.1452 13.0667 56.1452 14.1334C56.1452 15.1667 56.4452 16.0001 57.0118 16.5667C57.5785 17.1334 58.3452 17.4334 59.3118 17.4334ZM68.6118 8.70007C68.8118 8.70007 68.9785 8.70007 69.1452 8.7334C69.3118 8.76673 69.4452 8.80007 69.5452 8.8334V11.3001C69.4118 11.2001 69.2452 11.1001 68.9785 11.0334C68.7118 10.9667 68.4452 10.9001 68.0785 10.9001C67.4785 10.9001 66.9785 11.1667 66.5785 11.6667C66.1785 12.1667 65.9452 12.9334 65.9452 14.0001V19.2001H63.5118V8.86673H65.9452V10.5001H65.9785C66.2118 9.9334 66.5452 9.50006 66.9785 9.16673C67.4452 8.86673 67.9785 8.70007 68.6118 8.70007ZM69.6785 14.2001C69.6785 12.5001 70.1785 11.1334 71.1118 10.1334C72.0785 9.1334 73.4118 8.6334 75.1118 8.6334C76.7118 8.6334 77.9785 9.10007 78.8785 10.0667C79.7785 11.0334 80.2452 12.3334 80.2452 13.9667C80.2452 15.6334 79.7452 16.9667 78.8118 17.9667C77.8452 18.9667 76.5452 19.4667 74.8785 19.4667C73.2785 19.4667 72.0118 19.0001 71.0785 18.0667C70.1452 17.1001 69.6785 15.8001 69.6785 14.2001ZM72.2118 14.1001C72.2118 15.1667 72.4452 16.0001 72.9452 16.5667C73.4452 17.1334 74.1452 17.4334 75.0452 17.4334C75.9118 17.4334 76.6118 17.1667 77.0785 16.5667C77.5452 16.0001 77.7785 15.1667 77.7785 14.0334C77.7785 12.9334 77.5452 12.1001 77.0785 11.5001C76.6118 10.9334 75.9118 10.6334 75.0785 10.6334C74.1785 10.6334 73.5118 10.9334 73.0118 11.5334C72.4451 12.1667 72.2118 13.0001 72.2118 14.1001ZM83.8785 11.6001C83.8785 11.9334 83.9785 12.2334 84.2118 12.4334C84.4452 12.6334 84.9118 12.8667 85.6785 13.1667C86.6451 13.5667 87.3452 14.0001 87.7118 14.4667C88.1118 14.9667 88.3118 15.5334 88.3118 16.2334C88.3118 17.2001 87.9452 17.9667 87.1785 18.5667C86.4451 19.1667 85.4118 19.4334 84.1452 19.4334C83.7118 19.4334 83.2452 19.3667 82.7118 19.2667C82.1785 19.1667 81.7452 19.0334 81.3785 18.8667V16.4667C81.8118 16.7667 82.3118 17.0334 82.8118 17.2001C83.3118 17.3667 83.7785 17.4667 84.2118 17.4667C84.7452 17.4667 85.1785 17.4001 85.4118 17.2334C85.6785 17.0667 85.8118 16.8334 85.8118 16.4667C85.8118 16.1334 85.6785 15.8667 85.4118 15.6001C85.1452 15.3667 84.6118 15.1001 83.8785 14.8001C82.9785 14.4334 82.3452 14.0001 81.9785 13.5334C81.6118 13.0667 81.4118 12.4667 81.4118 11.7334C81.4118 10.8001 81.7785 10.0334 82.5118 9.4334C83.2452 8.8334 84.2118 8.5334 85.3785 8.5334C85.7452 8.5334 86.1452 8.56673 86.5785 8.66673C87.0118 8.76673 87.4118 8.86673 87.7118 8.96673V11.3334C87.3785 11.1334 87.0118 10.9334 86.5785 10.7667C86.1452 10.6001 85.7118 10.5334 85.3118 10.5334C84.8452 10.5334 84.4785 10.6334 84.2452 10.8001C84.0118 11.0334 83.8785 11.2667 83.8785 11.6001ZM89.3451 14.2001C89.3451 12.5001 89.8452 11.1334 90.7785 10.1334C91.7452 9.1334 93.0785 8.6334 94.7785 8.6334C96.3785 8.6334 97.6451 9.10007 98.5452 10.0667C99.4452 11.0334 99.9118 12.3334 99.9118 13.9667C99.9118 15.6334 99.4118 16.9667 98.4785 17.9667C97.5118 18.9667 96.2118 19.4667 94.5452 19.4667C92.9452 19.4667 91.6785 19.0001 90.7452 18.0667C89.8452 17.1001 89.3451 15.8001 89.3451 14.2001ZM91.8785 14.1001C91.8785 15.1667 92.1118 16.0001 92.6118 16.5667C93.1118 17.1334 93.8118 17.4334 94.7118 17.4334C95.5785 17.4334 96.2785 17.1667 96.7452 16.5667C97.2118 16.0001 97.4452 15.1667 97.4452 14.0334C97.4452 12.9334 97.2118 12.1001 96.7452 11.5001C96.2785 10.9334 95.5785 10.6334 94.7452 10.6334C93.8452 10.6334 93.1785 10.9334 92.6785 11.5334C92.1451 12.1667 91.8785 13.0001 91.8785 14.1001ZM108.012 10.8667H104.378V19.2001H101.912V10.8667H100.178V8.86673H101.912V7.4334C101.912 6.36673 102.278 5.46673 102.978 4.76673C103.678 4.06673 104.578 3.7334 105.678 3.7334C105.978 3.7334 106.245 3.76673 106.478 3.76673C106.712 3.76673 106.912 3.8334 107.078 3.90007V6.00007C107.012 5.96673 106.845 5.90007 106.645 5.8334C106.445 5.76673 106.212 5.7334 105.945 5.7334C105.445 5.7334 105.045 5.90007 104.778 6.20007C104.512 6.50007 104.378 7.00007 104.378 7.60006V8.8334H108.012V6.50007L110.445 5.76673V8.8334H112.912V10.8334H110.445V15.6667C110.445 16.3001 110.578 16.7334 110.778 17.0001C111.012 17.2667 111.378 17.4001 111.878 17.4001C112.012 17.4001 112.178 17.3667 112.378 17.3001C112.578 17.2334 112.745 17.1667 112.878 17.0667V19.0667C112.712 19.1667 112.478 19.2334 112.112 19.3001C111.745 19.3667 111.412 19.4001 111.045 19.4001C110.012 19.4001 109.245 19.1334 108.745 18.6001C108.245 18.0667 107.978 17.2334 107.978 16.1334L108.012 10.8667Z" fill="white"/>
<path d="M11.7784 0H0.378418V11.4H11.7784V0Z" fill="white"/>
<path d="M24.3785 0H12.9785V11.4H24.3785V0Z" fill="white"/>
<path d="M11.7784 12.6001H0.378418V24.0001H11.7784V12.6001Z" fill="white"/>
<path d="M24.3785 12.6001H12.9785V24.0001H24.3785V12.6001Z" fill="white"/>
</g>
<defs>
<clipPath id="clip0_2001_160">
<rect width="112.533" height="24" fill="white" transform="translate(0.378418)"/>
</clipPath>
</defs>
</svg>
