<svg width="129" height="24" viewBox="0 0 129 24" fill="none" xmlns="http://www.w3.org/2000/svg">
<g clip-path="url(#clip0_2001_205)">
<path d="M78.7051 4.47025V20.4795H83.223V4.47025H78.7051ZM43.1591 4.44312V20.466H47.7176V8.02486L51.2722 8.03842C52.439 8.03842 53.2531 8.32334 53.8093 8.92029C54.5284 9.68006 54.8133 10.9147 54.8133 13.1533V20.466H59.2362V11.6202C59.2362 5.29785 55.2067 4.44312 51.2722 4.44312H43.1591ZM85.9907 4.47025V20.4795H93.317C97.2244 20.4795 98.4997 19.8283 99.87 18.3766C100.847 17.3591 101.471 15.1069 101.471 12.6513C101.471 10.3991 100.942 8.39117 100.006 7.14299C98.3504 4.9044 95.9355 4.47025 92.3266 4.47025H85.9907ZM90.4679 7.94345H92.408C95.23 7.94345 97.048 9.2052 97.048 12.4885C97.048 15.7717 95.23 17.047 92.408 17.047H90.4679V7.94345ZM72.1929 4.47025L68.4212 17.1556L64.8123 4.47025H59.9281L65.0837 20.4795H71.5959L76.8057 4.47025H72.1929ZM103.587 20.4795H108.105V4.47025H103.587V20.4795ZM116.259 4.47025L109.95 20.466H114.4L115.404 17.6304H122.866L123.816 20.4524H128.66L122.297 4.47025H116.259ZM119.19 7.3872L121.93 14.8763H116.368L119.19 7.3872Z" fill="white"/>
<path d="M14.0031 7.12944V4.93156C14.2202 4.91799 14.4372 4.90442 14.6543 4.90442C20.6782 4.71448 24.6262 10.0871 24.6262 10.0871C24.6262 10.0871 20.3661 16.0024 15.794 16.0024C15.1834 16.0024 14.5865 15.9074 14.0167 15.7175V9.04242C16.3638 9.32733 16.8386 10.3584 18.2361 12.7056L21.3701 10.0735C21.3701 10.0735 19.0772 7.07517 15.2241 7.07517C14.8171 7.06161 14.4101 7.08874 14.0031 7.12944ZM14.0031 -0.142578V3.14068L14.6543 3.09998C23.0253 2.81507 28.4929 9.96499 28.4929 9.96499C28.4929 9.96499 22.2248 17.5898 15.699 17.5898C15.1292 17.5898 14.5729 17.5355 14.0167 17.4405V19.4756C14.478 19.5299 14.9528 19.5706 15.4141 19.5706C21.4922 19.5706 25.888 16.4637 30.1481 12.8005C30.8536 13.3704 33.7434 14.7406 34.3403 15.3376C30.2973 18.7294 20.8681 21.4564 15.5226 21.4564C15.0071 21.4564 14.5187 21.4293 14.0302 21.375V24.2377H37.1216V-0.142578H14.0031ZM14.0031 15.7175V17.4541C8.38628 16.4501 6.82605 10.6026 6.82605 10.6026C6.82605 10.6026 9.52592 7.61786 14.0031 7.12944V9.02885H13.9895C11.6424 8.74394 9.79727 10.9418 9.79727 10.9418C9.79727 10.9418 10.8419 14.6457 14.0031 15.7175ZM4.0312 10.3584C4.0312 10.3584 7.35517 5.44711 14.0167 4.93156V3.14068C6.63611 3.73764 0.259521 9.97855 0.259521 9.97855C0.259521 9.97855 3.8684 20.4253 14.0031 21.375V19.4756C6.56827 18.553 4.0312 10.3584 4.0312 10.3584Z" fill="white"/>
</g>
<defs>
<clipPath id="clip0_2001_205">
<rect width="128.4" height="24" fill="white" transform="translate(0.259521)"/>
</clipPath>
</defs>
</svg>
