<svg width="89" height="24" viewBox="0 0 89 24" fill="none" xmlns="http://www.w3.org/2000/svg">
<g clip-path="url(#clip0_2001_166)">
<path d="M27.6434 11.5379C27.6434 15.4619 30.1634 18.1979 33.6554 18.1979C37.1474 18.1979 39.6674 15.4619 39.6674 11.5379C39.6674 7.61393 37.1474 4.87793 33.6554 4.87793C30.1634 4.87793 27.6434 7.61393 27.6434 11.5379ZM37.3634 11.5379C37.3634 14.3459 35.8334 16.1639 33.6554 16.1639C31.4774 16.1639 29.9474 14.3459 29.9474 11.5379C29.9474 8.72993 31.4774 6.91193 33.6554 6.91193C35.8334 6.91193 37.3634 8.72993 37.3634 11.5379Z" fill="white"/>
<path d="M46.1557 18.1981C48.8017 18.1981 50.3137 15.9661 50.3137 13.2841C50.3137 10.6021 48.8017 8.37012 46.1557 8.37012C44.9317 8.37012 44.0317 8.85612 43.4377 9.55812V8.55012H41.2777V21.2401H43.4377V17.0101C44.0317 17.7121 44.9317 18.1981 46.1557 18.1981ZM43.3837 13.0141C43.3837 11.2321 44.3917 10.2601 45.7237 10.2601C47.2897 10.2601 48.1357 11.4841 48.1357 13.2841C48.1357 15.0841 47.2897 16.3081 45.7237 16.3081C44.3917 16.3081 43.3837 15.3181 43.3837 13.5721V13.0141Z" fill="white"/>
<path d="M56.1592 18.1981C58.0492 18.1981 59.5432 17.2081 60.2092 15.5521L58.3552 14.8501C58.0672 15.8221 57.2212 16.3621 56.1592 16.3621C54.7732 16.3621 53.8012 15.3721 53.6392 13.7521H60.2632V13.0321C60.2632 10.4401 58.8052 8.37012 56.0692 8.37012C53.3332 8.37012 51.5692 10.5121 51.5692 13.2841C51.5692 16.2001 53.4592 18.1981 56.1592 18.1981ZM56.0512 10.1881C57.4192 10.1881 58.0672 11.0881 58.0852 12.1321H53.7472C54.0712 10.8541 54.9352 10.1881 56.0512 10.1881Z" fill="white"/>
<path d="M61.8839 18.0001H64.0439V12.4561C64.0439 11.1061 65.0339 10.3861 66.0059 10.3861C67.1939 10.3861 67.6619 11.2321 67.6619 12.4021V18.0001H69.8219V11.7721C69.8219 9.73812 68.6339 8.37012 66.6539 8.37012C65.4299 8.37012 64.5839 8.92812 64.0439 9.55812V8.55012H61.8839V18.0001Z" fill="white"/>
<path d="M76.1482 5.07593L71.2522 17.9999H73.5382L74.6362 15.0479H80.2162L81.3322 17.9999H83.6542L78.7582 5.07593H76.1482ZM77.4082 7.63193L79.4602 13.0319H75.3922L77.4082 7.63193Z" fill="white"/>
<path d="M87.3622 5.11353H85.0582V18.0375H87.3622V5.11353Z" fill="white"/>
<path d="M22.365 9.82286C22.9095 8.18861 22.722 6.39836 21.8513 4.91186C20.5418 2.63186 17.9093 1.45886 15.3383 2.01086C14.1945 0.722361 12.5513 -0.0103887 10.8285 0.000111317C8.2005 -0.00588868 5.86875 1.68611 5.06025 4.18661C3.372 4.53236 1.91475 5.58911 1.062 7.08686C-0.257246 9.36086 0.0435044 12.2274 1.806 14.1774C1.2615 15.8116 1.449 17.6019 2.31975 19.0884C3.62925 21.3684 6.26175 22.5414 8.83275 21.9894C9.97575 23.2779 11.6198 24.0106 13.3425 23.9994C15.972 24.0061 18.3045 22.3126 19.113 19.8099C20.8013 19.4641 22.2585 18.4074 23.1113 16.9096C24.429 14.6356 24.1275 11.7714 22.3658 9.82136L22.365 9.82286ZM13.344 22.4311C12.2918 22.4326 11.2725 22.0644 10.4648 21.3901C10.5015 21.3706 10.5653 21.3354 10.6065 21.3099L15.3855 18.5499C15.63 18.4111 15.78 18.1509 15.7785 17.8696V11.1324L17.7983 12.2986C17.82 12.3091 17.8343 12.3301 17.8373 12.3541V17.9334C17.8343 20.4144 15.825 22.4259 13.344 22.4311ZM3.681 18.3039C3.15375 17.3934 2.964 16.3261 3.14475 15.2904C3.18 15.3114 3.24225 15.3496 3.2865 15.3751L8.0655 18.1351C8.30775 18.2769 8.60775 18.2769 8.85075 18.1351L14.685 14.7661V17.0986C14.6865 17.1226 14.6753 17.1459 14.6565 17.1609L9.82575 19.9501C7.674 21.1891 4.926 20.4526 3.68175 18.3039H3.681ZM2.42325 7.87211C2.94825 6.96011 3.777 6.26261 4.764 5.90036C4.764 5.94161 4.76175 6.01436 4.76175 6.06536V11.5861C4.76025 11.8666 4.91025 12.1269 5.154 12.2656L10.9883 15.6339L8.9685 16.8001C8.94825 16.8136 8.92275 16.8159 8.90025 16.8061L4.06875 14.0146C1.9215 12.7711 1.185 10.0239 2.4225 7.87286L2.42325 7.87211ZM19.0178 11.7339L13.1835 8.36486L15.2033 7.19936C15.2235 7.18586 15.249 7.18361 15.2715 7.19336L20.103 9.98261C22.254 11.2254 22.9913 13.9771 21.7485 16.1281C21.2228 17.0386 20.3948 17.7361 19.4085 18.0991V12.4134C19.4108 12.1329 19.2615 11.8734 19.0185 11.7339H19.0178ZM21.0278 8.70836C20.9925 8.68661 20.9303 8.64911 20.886 8.62361L16.107 5.86361C15.8648 5.72186 15.5648 5.72186 15.3218 5.86361L9.4875 9.23261V6.90011C9.486 6.87611 9.49725 6.85286 9.516 6.83786L14.3468 4.05086C16.4985 2.80961 19.2495 3.54836 20.49 5.70086C21.0143 6.60986 21.204 7.67411 21.0263 8.70836H21.0278ZM8.3895 12.8656L6.369 11.6994C6.34725 11.6889 6.333 11.6679 6.33 11.6439V6.06461C6.3315 3.58061 8.34676 1.56761 10.8308 1.56911C11.8815 1.56911 12.8985 1.93811 13.7063 2.61011C13.6695 2.62961 13.6065 2.66486 13.5645 2.69036L8.7855 5.45036C8.541 5.58911 8.391 5.84861 8.3925 6.12986L8.3895 12.8641V12.8656ZM9.48675 10.5001L12.0855 8.99936L14.6843 10.4994V13.5001L12.0855 15.0001L9.48675 13.5001V10.5001Z" fill="white"/>
</g>
<defs>
<clipPath id="clip0_2001_166">
<rect width="88.5" height="24" fill="white" transform="translate(0.0854492)"/>
</clipPath>
</defs>
</svg>
