<svg width="144" height="24" viewBox="0 0 144 24" fill="none" xmlns="http://www.w3.org/2000/svg">
<g clip-path="url(#clip0_2001_151)">
<path fill-rule="evenodd" clip-rule="evenodd" d="M38.2677 0.0908203L26.0567 23.9618H14.5873L19.6975 14.0686H19.4683C15.2524 19.5414 8.96213 23.1442 -0.000488281 23.9618V14.2056C-0.000488281 14.2056 5.73311 13.8669 9.10373 10.3232H-0.000488281V0.0910089H10.2317V8.50681L10.4613 8.50587L14.6426 0.0910089H22.3809V8.45346L22.6106 8.45309L26.9486 0.0908203H38.2677Z" fill="white"/>
<path d="M104.853 21.327H108.148V2.41162H104.853V21.327Z" fill="white"/>
<path fill-rule="evenodd" clip-rule="evenodd" d="M86.6864 21.1339C87.4027 21.4317 88.1309 21.5805 88.8713 21.5805C90.0945 21.5805 91.1888 21.2828 92.1545 20.6873C93.1202 20.0918 93.8686 19.2709 94.3998 18.2249C94.931 17.1706 95.1964 15.9756 95.1964 14.6397C95.1964 13.3038 94.9229 12.1088 94.3757 11.0546C93.8284 10.0004 93.068 9.18361 92.0942 8.6042C91.1206 8.01674 90.014 7.72703 88.7747 7.73508C87.9861 7.73508 87.2296 7.88798 86.5054 8.19379C85.781 8.49958 85.1776 8.93414 84.6947 9.49745C84.6574 9.54035 84.6212 9.58366 84.5861 9.62741V2.42383H81.2786V21.3271H84.5619L84.5553 19.5612C84.6403 19.6653 84.731 19.767 84.8275 19.8664C85.3506 20.4057 85.9702 20.8281 86.6864 21.1339ZM90.0663 18.0799C89.5271 18.4098 88.9115 18.5749 88.2195 18.5749C87.5354 18.5749 86.9077 18.4059 86.3363 18.0679C85.765 17.7218 85.3103 17.2511 84.9723 16.6556C84.6424 16.0601 84.4775 15.3841 84.4775 14.6277C84.4694 13.8712 84.6304 13.1952 84.9603 12.5997C85.2982 11.9962 85.7529 11.5294 86.3243 11.1995C86.8956 10.8615 87.5273 10.6965 88.2195 10.7046C88.9115 10.6965 89.5271 10.8575 90.0663 11.1874C90.6135 11.5093 91.032 11.972 91.3217 12.5756C91.6194 13.1711 91.7683 13.8551 91.7683 14.6277C91.7683 15.4002 91.6194 16.0842 91.3217 16.6797C91.032 17.2752 90.6135 17.742 90.0663 18.0799Z" fill="white"/>
<path d="M43.0403 3.55811H46.8064L50.1754 15.8617L53.7594 3.55811H56.8978L60.7848 15.6148L64.0197 3.55811H67.472L62.3781 21.3267H59.1309L55.1786 9.54823L51.5503 21.3267H48.267L43.0403 3.55811Z" fill="white"/>
<path fill-rule="evenodd" clip-rule="evenodd" d="M73.0352 21.6409C71.7234 21.6488 70.5405 21.3591 69.4862 20.7717C68.4402 20.1762 67.6153 19.3513 67.0117 18.2972C66.4162 17.2429 66.1184 16.0399 66.1184 14.6879C66.1184 13.3763 66.4243 12.1892 67.0358 11.127C67.6474 10.0647 68.4764 9.23584 69.5224 8.64033C70.5686 8.04483 71.7355 7.74707 73.0231 7.74707C74.4716 7.74707 75.7391 8.06898 76.8255 8.71276C77.9199 9.35654 78.7367 10.2699 79.2758 11.4529C79.8231 12.6278 80.0202 13.9757 79.8674 15.4966H69.5276C69.5565 16.1026 69.7077 16.6539 69.9812 17.1504C70.287 17.6976 70.7135 18.1242 71.2606 18.4299C71.8079 18.7357 72.4195 18.8886 73.0955 18.8886C73.6105 18.8806 74.0893 18.792 74.5319 18.6231C74.9745 18.4461 75.3487 18.2086 75.6546 17.9109C75.9683 17.6131 76.1897 17.2751 76.3184 16.897H79.7708C79.5616 17.8224 79.1431 18.6472 78.5154 19.3715C77.8877 20.0876 77.099 20.6469 76.1495 21.0494C75.1998 21.4517 74.1617 21.6488 73.0352 21.6409ZM69.9933 12.1771C69.8004 12.5134 69.6668 12.8756 69.5924 13.2636H76.4464C76.3966 12.7734 76.2453 12.3268 75.9925 11.9237C75.7029 11.4489 75.3086 11.0827 74.8096 10.8252C74.3106 10.5596 73.7474 10.4268 73.1196 10.4268C72.4518 10.4268 71.8442 10.5797 71.297 10.8855C70.7497 11.1913 70.3151 11.6219 69.9933 12.1771Z" fill="white"/>
<path d="M97.624 8.02457C97.624 6.94622 97.8695 5.98859 98.3604 5.15167C98.8513 4.30669 99.5393 3.65083 100.425 3.18409C101.318 2.70929 102.36 2.46385 103.551 2.44775V5.381C102.996 5.38905 102.521 5.50575 102.127 5.73107C101.74 5.94835 101.442 6.26622 101.233 6.68468C101.041 7.06993 100.937 7.51655 100.921 8.02457H103.479V10.813H100.919V21.3269H97.624V10.813H95.4995V8.02457H97.624Z" fill="white"/>
<path fill-rule="evenodd" clip-rule="evenodd" d="M116.526 21.6166C115.182 21.6166 113.979 21.3228 112.916 20.7354C111.862 20.1399 111.033 19.319 110.43 18.2729C109.834 17.2186 109.536 16.0237 109.536 14.6878C109.536 13.3439 109.834 12.1448 110.43 11.0906C111.033 10.0284 111.862 9.2035 112.916 8.61605C113.979 8.02859 115.182 7.73486 116.526 7.73486C117.877 7.73486 119.085 8.02859 120.147 8.61605C121.217 9.2035 122.05 10.0243 122.646 11.0785C123.241 12.1327 123.543 13.3358 123.551 14.6878C123.543 16.0237 123.241 17.2186 122.646 18.2729C122.058 19.319 121.229 20.1399 120.159 20.7354C119.089 21.3228 117.877 21.6166 116.526 21.6166ZM116.526 18.5868C117.234 18.5868 117.861 18.4258 118.409 18.1039C118.956 17.774 119.378 17.3152 119.676 16.7278C119.974 16.1323 120.123 15.4523 120.123 14.6878C120.123 13.9153 119.974 13.2312 119.676 12.6357C119.378 12.0402 118.956 11.5815 118.409 11.2596C117.861 10.9297 117.234 10.7647 116.526 10.7647C115.825 10.7647 115.202 10.9297 114.655 11.2596C114.115 11.5815 113.697 12.0402 113.399 12.6357C113.101 13.2312 112.957 13.9153 112.965 14.6878C112.965 15.4523 113.113 16.1323 113.411 16.7278C113.717 17.3152 114.135 17.774 114.667 18.1039C115.206 18.4258 115.825 18.5868 116.526 18.5868Z" fill="white"/>
<path d="M127.112 8.02441H123.443L127.414 21.3267H130.625L133.237 12.8305L136.057 21.3267H139.22L143.203 8.02441H139.884L137.625 16.3042L135.128 8.02441H131.916L129.431 16.4867L127.112 8.02441Z" fill="white"/>
</g>
<defs>
<clipPath id="clip0_2001_151">
<rect width="143.204" height="24" fill="white"/>
</clipPath>
</defs>
</svg>
